HIERARCHY
ROOT joint_Root
{
	OFFSET 0.0 0.0 0.0
	CHANNELS 6 Xposition Yposition Zposition Zrotation Xrotation Yrotation 
	JOINT Hips
	{
		OFFSET -0.726466 93.3139 -2.00062
		CHANNELS 6 Xposition Yposition Zposition Zrotation Xrotation Yrotation 
		JOINT Spine
		{
			OFFSET 15.7357 0.0 0.0
			CHANNELS 6 Xposition Yposition Zposition Zrotation Xrotation Yrotation 
			JOINT Chest
			{
				OFFSET 8.98455 -0.406207 0.0
				CHANNELS 6 Xposition Yposition Zposition Zrotation Xrotation Yrotation 
				JOINT Neck
				{
					OFFSET 16.3773 0.0 0.0
					CHANNELS 6 Xposition Yposition Zposition Zrotation Xrotation Yrotation 
					JOINT Head
					{
						OFFSET 6.45672 0.0 0.0
						CHANNELS 6 Xposition Yposition Zposition Zrotation Xrotation Yrotation 
						End Site
						{
							OFFSET 0.0 0.0 0.0
						}
					}
				}
				JOINT Shoulder_L
				{
					OFFSET 12.9942 -0.242716 4.98039
					CHANNELS 6 Xposition Yposition Zposition Zrotation Xrotation Yrotation 
					JOINT UpperArm_L
					{
						OFFSET 5.34809 0.0 0.0
						CHANNELS 6 Xposition Yposition Zposition Zrotation Xrotation Yrotation 
						JOINT LowerArm_L
						{
							OFFSET 24.3286 1.87007e-05 0.0
							CHANNELS 6 Xposition Yposition Zposition Zrotation Xrotation Yrotation 
							JOINT Hand_L
							{
								OFFSET 22.2916 0.0 0.0
								CHANNELS 6 Xposition Yposition Zposition Zrotation Xrotation Yrotation 
								End Site
								{
									OFFSET 0.0 0.0 0.0
								}
							}
						}
					}
				}
				JOINT Shoulder_R
				{
					OFFSET 12.9945 -0.242716 -4.98039
					CHANNELS 6 Xposition Yposition Zposition Zrotation Xrotation Yrotation 
					JOINT UpperArm_R
					{
						OFFSET -5.34813 0.0 0.0
						CHANNELS 6 Xposition Yposition Zposition Zrotation Xrotation Yrotation 
						JOINT LowerArm_R
						{
							OFFSET -24.3289 0.000322201 0.0
							CHANNELS 6 Xposition Yposition Zposition Zrotation Xrotation Yrotation 
							JOINT Hand_R
							{
								OFFSET -22.2915 -0.000108084 0.0
								CHANNELS 6 Xposition Yposition Zposition Zrotation Xrotation Yrotation 
								End Site
								{
									OFFSET 0.0 0.0 0.0
								}
							}
						}
					}
				}
			}
		}
		JOINT UpperLeg_L
		{
			OFFSET -2.19248 -6.46944 0.0
			CHANNELS 6 Xposition Yposition Zposition Zrotation Xrotation Yrotation 
			JOINT LowerLeg_L
			{
				OFFSET 39.0811 0.0 -1.23785e-05
				CHANNELS 6 Xposition Yposition Zposition Zrotation Xrotation Yrotation 
				JOINT Foot_L
				{
					OFFSET 40.9854 0.0 -1.26872e-05
					CHANNELS 6 Xposition Yposition Zposition Zrotation Xrotation Yrotation 
					JOINT Toes_L
					{
						OFFSET 11.7543 0.0 0.0
						CHANNELS 6 Xposition Yposition Zposition Zrotation Xrotation Yrotation 
						End Site
						{
							OFFSET 0.0 0.0 0.0
						}
					}
				}
			}
		}
		JOINT UpperLeg_R
		{
			OFFSET -2.19251 6.46944 0.0
			CHANNELS 6 Xposition Yposition Zposition Zrotation Xrotation Yrotation 
			JOINT LowerLeg_R
			{
				OFFSET -39.0811 -0.00228153 -0.0401928
				CHANNELS 6 Xposition Yposition Zposition Zrotation Xrotation Yrotation 
				JOINT Foot_R
				{
					OFFSET -40.9854 0.0 0.0
					CHANNELS 6 Xposition Yposition Zposition Zrotation Xrotation Yrotation 
					JOINT Toes_R
					{
						OFFSET -11.7543 0.0 0.0
						CHANNELS 6 Xposition Yposition Zposition Zrotation Xrotation Yrotation 
						End Site
						{
							OFFSET 0.0 0.0 0.0
						}
					}
				}
			}
		}
	}
}
MOTION
Frames:	4
Frame Time:	0.0333333
0.000000 0.000000 0.000000 0.000000 0.000000 -0.000000 -5.001940 88.822000 54.702600 -92.854100 11.961500 -175.453000 15.735700 0.000005 -0.000001 117.487000 83.764700 -118.702000 8.984550 -0.406207 -0.000000 3.374440 5.795690 -2.601340 16.377300 -0.000001 -0.000001 2.004840 -0.033599 2.882540 6.456720 -0.000001 -0.000000 5.619240 -1.435540 -5.700950 12.994200 -0.242716 4.980390 -90.009100 0.025583 -70.475800 5.348090 -0.000007 -0.000001 -75.973300 24.760600 -1.723190 24.328600 0.000019 0.000005 2.995910 15.396500 -11.152500 22.291600 -0.000001 0.000005 4.892990 5.378960 -2.265970 12.994500 -0.242716 -4.980390 88.198500 7.581410 -76.591100 -5.348130 -0.000001 -0.000004 -56.198500 27.204600 -25.657100 -24.328900 0.000322 -0.000009 3.059940 4.788650 -32.644700 -22.291500 -0.000108 -0.000004 13.960900 5.425400 -3.781530 -2.192480 -6.469440 -0.000000 177.047000 -9.208150 -24.838900 39.081100 -0.000007 -0.000012 0.018486 -0.037617 26.170600 40.985400 -0.000006 -0.000013 1.933530 -6.847010 -47.743500 11.754300 -0.000000 0.000003 -0.004300 -0.054534 -18.795300 -2.192510 6.469440 -0.000001 170.072000 6.985360 -169.840000 -39.081100 -0.002282 -0.040193 0.047494 -0.061844 35.555900 -40.985400 0.000008 0.000006 5.100900 1.602040 -62.964400 -11.754300 -0.000006 -0.000006 -0.128144 -0.509619 -38.001500
0.000000 0.000000 0.000000 0.000000 0.000000 -0.000000 -5.700460 89.169800 49.845000 -93.181400 12.198600 -174.363000 15.735700 0.000005 -0.000001 117.085000 83.600300 -118.346000 8.984550 -0.406207 -0.000000 3.711750 5.864780 -2.709470 16.377300 -0.000001 -0.000001 2.265310 0.039322 2.699300 6.456720 -0.000001 -0.000000 5.789570 -1.449890 -5.820090 12.994200 -0.242716 4.980390 -89.966900 -0.093863 -70.591700 5.348090 -0.000007 -0.000001 -75.629400 27.598200 -4.176140 24.328600 0.000019 0.000005 3.250610 14.091800 -13.131000 22.291600 -0.000001 0.000005 4.446810 5.390900 -2.645800 12.994500 -0.242716 -4.980390 88.376100 6.835960 -76.603000 -5.348130 -0.000001 -0.000004 -60.147200 27.532800 -21.245900 -24.328900 0.000322 -0.000009 2.918720 5.391460 -28.496300 -22.291500 -0.000108 -0.000004 13.512800 5.411810 -3.324010 -2.192480 -6.469440 -0.000000 176.405000 -8.695500 -22.583400 39.081100 -0.000007 -0.000012 -0.020119 0.034103 30.538700 40.985400 -0.000006 -0.000013 1.647380 -7.554090 -53.447100 11.754300 -0.000000 0.000003 -0.001240 -0.018769 -17.340000 -2.192510 6.469440 -0.000001 169.328000 5.486100 -172.801000 -39.081100 -0.002282 -0.040193 0.094659 -0.094495 44.043600 -40.985400 0.000008 0.000006 6.438320 -0.057522 -52.489300 -11.754300 -0.000006 -0.000006 -0.167393 -0.587976 -41.555200
0.000000 0.000000 0.000000 0.000000 0.000000 -0.000000 -6.439310 89.438200 45.610800 -93.447400 12.532800 -173.848000 15.735700 0.000005 -0.000001 115.983000 83.581800 -117.231000 8.984550 -0.406207 -0.000000 3.851550 5.658610 -2.686310 16.377300 -0.000001 -0.000001 2.392480 0.391305 2.453310 6.456720 -0.000001 -0.000000 5.956970 -1.143680 -6.069360 12.994200 -0.242716 4.980390 -89.932300 -0.193200 -70.678600 5.348090 -0.000007 -0.000001 -74.816600 30.143000 -7.145480 24.328600 0.000019 0.000005 3.467260 12.369600 -15.795000 22.291600 -0.000001 0.000005 4.498440 5.400460 -2.951430 12.994500 -0.242716 -4.980390 88.507900 6.335240 -76.718300 -5.348130 -0.000001 -0.000004 -63.173100 27.908400 -18.120400 -24.328900 0.000322 -0.000009 2.618700 6.306420 -22.620000 -22.291500 -0.000108 -0.000004 12.033900 5.398550 -2.888650 -2.192480 -6.469440 -0.000000 175.533000 -8.843390 -20.271400 39.081100 -0.000007 -0.000012 -0.051858 0.080512 32.786200 40.985400 -0.000006 -0.000013 1.741010 -7.971810 -57.702700 11.754300 -0.000000 0.000003 -0.000393 -0.006374 -16.836300 -2.192510 6.469440 -0.000001 169.322000 3.022070 -178.781000 -39.081100 -0.002282 -0.040193 0.126807 -0.089297 54.147800 -40.985400 0.000008 0.000006 5.155200 -3.458500 -41.029300 -11.754300 -0.000006 -0.000006 -0.060585 -0.333671 -30.355000
0.000000 0.000000 0.000000 0.000000 0.000000 -0.000000 -6.957890 89.674900 41.846400 -93.758000 12.276100 -173.529000 15.735700 0.000005 -0.000001 112.313000 83.659000 -113.585000 8.984550 -0.406207 -0.000000 4.033550 4.849390 -2.713020 16.377300 -0.000001 -0.000001 2.405080 0.640339 2.075870 6.456720 -0.000001 -0.000000 6.052420 -0.461981 -6.090520 12.994200 -0.242716 4.980390 -89.883200 -0.340051 -71.041900 5.348090 -0.000007 -0.000001 -73.242100 32.060100 -10.554800 24.328600 0.000019 0.000005 3.521620 10.461300 -18.727100 22.291600 -0.000001 0.000005 4.715990 5.425690 -3.791010 12.994500 -0.242716 -4.980390 88.542700 6.123300 -76.585400 -5.348130 -0.000001 -0.000004 -65.524100 28.189700 -16.046600 -24.328900 0.000322 -0.000009 2.686630 9.255920 -16.287500 -22.291500 -0.000108 -0.000004 10.146400 5.364820 -1.821090 -2.192480 -6.469440 -0.000000 174.619000 -9.797070 -17.745100 39.081100 -0.000007 -0.000012 -0.061054 0.091827 33.619700 40.985400 -0.000006 -0.000013 2.201810 -7.146070 -60.947100 11.754300 -0.000000 0.000003 -0.000364 -0.005912 -16.817600 -2.192510 6.469440 -0.000001 169.501000 2.043420 175.578000 -39.081100 -0.002282 -0.040193 0.114020 -0.058369 62.227100 -40.985400 0.000008 0.000006 6.117220 -5.965930 -35.809400 -11.754300 -0.000006 -0.000006 -0.020932 -0.172397 -23.618400
